<?xml version="1.0" encoding="UTF-8" standalone="no"?>
<!-- Generator: Adobe Illustrator 19.2.1, SVG Export Plug-In . SVG Version: 6.00 Build 0)  -->

<svg
   xmlns:dc="http://purl.org/dc/elements/1.1/"
   xmlns:cc="http://creativecommons.org/ns#"
   xmlns:rdf="http://www.w3.org/1999/02/22-rdf-syntax-ns#"
   xmlns:svg="http://www.w3.org/2000/svg"
   xmlns="http://www.w3.org/2000/svg"
   xmlns:sodipodi="http://sodipodi.sourceforge.net/DTD/sodipodi-0.dtd"
   xmlns:inkscape="http://www.inkscape.org/namespaces/inkscape"
   version="1.1"
   x="0px"
   y="0px"
   viewBox="0 0 238.2 246.5"
   style="enable-background:new 0 0 238.2 246.5;"
   xml:space="preserve"
   id="svg1740"
   sodipodi:docname="logo.svg"
   inkscape:version="0.92.2 5c3e80d, 2017-08-06"><metadata
     id="metadata1746"><rdf:RDF><cc:Work
         rdf:about=""><dc:format>image/svg+xml</dc:format><dc:type
           rdf:resource="http://purl.org/dc/dcmitype/StillImage" /></cc:Work></rdf:RDF></metadata><defs
     id="defs1744" /><sodipodi:namedview
     pagecolor="#ffffff"
     bordercolor="#666666"
     borderopacity="1"
     objecttolerance="10"
     gridtolerance="10"
     guidetolerance="10"
     inkscape:pageopacity="0"
     inkscape:pageshadow="2"
     inkscape:window-width="1853"
     inkscape:window-height="1149"
     id="namedview1742"
     showgrid="false"
     inkscape:zoom="2.7079465"
     inkscape:cx="104.90941"
     inkscape:cy="170.08827"
     inkscape:window-x="67"
     inkscape:window-y="27"
     inkscape:window-maximized="1"
     inkscape:current-layer="layer1" /><style
     type="text/css"
     id="style1708">
	.st0{display:none;}
	.st1{display:inline;stroke:#BFB2D8;}
	.st2{stroke:#000000;stroke-width:0.4074;}
	.st3{fill:#FFFFFF;}
	.st4{fill:#FFD42A;stroke:#000000;stroke-width:2.8518;}
	.st5{fill:#FFD42A;}
	.st6{stroke:#000000;stroke-width:0.407;}
	.st7{stroke:#000000;stroke-width:0.4074;stroke-linejoin:round;}
	.st8{fill:none;stroke:#000000;stroke-width:3.2859;stroke-linecap:round;stroke-linejoin:round;}
	.st9{fill:#FFFFFF;stroke:#000000;stroke-width:2.957;stroke-linecap:round;stroke-linejoin:round;}
	.st10{display:inline;}
	.st11{fill:none;stroke:#FFFFFF;}
</style><g
     id="Ebene_4"
     class="st0"><rect
       x="13.7"
       y="13.5"
       class="st1"
       width="193"
       height="193"
       id="rect1710" /></g><g
     id="svg4084_Kopie"
     class="st0"><path
       class="st10"
       d="M229.2,113.5c-21.9-19.4-52.5-17.7-75.2-12.5c-1.7-4.9-3.7-9.6-5.8-13.9c3.9-0.5,8.8,1.1,10.1,3.3   c0.3,0.4,0.8,0.7,1.3,0.7c0.2,0,0.4,0,0.5-0.1c3-1.1,5.7-2.2,8.4-3.2c17.7-6.8,29.5-11.4,46.5-12.5c0.4,0,0.7-0.2,1-0.5   c1.9-2.1,3.1-5.6,3.9-8c0.2-0.8-0.2-1.6-0.9-1.8c-37-12.7-58.6-6.4-79.1,7.4c-0.3-0.5-0.7-1-1-1.5c0-0.9-0.1-1.8-0.1-2.8   c-0.4-10.3-1-27.6-10.3-34.6c-1.2-4.1-3.4-11.8-4.3-16.6c-0.1-0.5-0.2-1.3-0.2-2c-0.1-2-0.3-4.6-2.3-5.6l-0.1,0   c-1.5-0.7-3.2,0.6-3.9,1.5c-1.4,1.5-2.4,5-2.6,6c-0.5,2-1,3.5-1.5,4.9c-1,2.7-1.9,5.4-2.8,11.5C105,37,100.3,47.1,99.6,68.9   c-0.5,1-1,2.1-1.5,3.1c-18.2-9.8-38.6-11.8-56.3-5.5c-10.6,3.8-18.8,10.2-21.5,16.9c-0.2,0.5-0.1,1,0.1,1.4   c0.3,0.4,0.7,0.6,1.2,0.7c1.2,0,2.7,0,4.4,0c12.2-0.1,37.4-0.2,48.5,7.3c0.2,0.2,0.5,0.3,0.8,0.3c0,0,0.1,0,0.1,0   c7-0.4,11.1-0.3,11.2-0.3c0.4,0,0.8-0.1,1-0.4c1-1,2-1.6,3-1.9c-1.2,3.6-2.3,7.2-3.1,10.7c-0.7,0-1.4-0.1-2.1-0.1   c-1.3-0.1-2.6-0.2-4-0.1c-51.1-1.8-56.7,3.6-71.6,18L9,119.7c-0.6,0.5-0.6,1.4-0.1,2l2.8,3.3c0.3,0.3,0.7,0.5,1.1,0.5l13,0   c18.6,0,30.9,0,45.6,0.3c0,0,0,0,0,0c0.1,0,0.3,0,0.4-0.1c5.9-1.8,9-4.3,12.1-6.6c0.2-0.2,0.4-0.3,0.6-0.5c-0.3,3.4-0.4,6.7-0.3,10   c-3.2,1.1-6.7,2-8.6,2.2c-15.5,1.7-47.2,13.5-46,39.4c0,0.5,0.3,0.9,0.7,1.2c0.2,0.2,0.5,0.2,0.8,0.2c0.2,0,0.4,0,0.5-0.1l2.1-0.8   c9.2-3.5,13.8-5.3,23.1-8.7c3-1.1,5.9-1.7,8.8-2.3c3-0.7,5.8-1.3,8.3-2.3c0.1,0,0.2-0.1,0.2-0.1c3.8-2.4,7-6.1,8.9-10.5   c1.2-0.8,2.4-1.3,3.5-1.5c3.7,15,11.7,28.2,24.1,39.4c0,0,0.1,0.1,0.1,0.1c0.2,0.1,0.4,0.3,0.6,0.4c1.4,2.2,1.3,3.3,1,5.2   c0,0.3-0.1,0.6-0.1,0.9c-0.7,5.4-0.6,5.8,0.4,9.5c0.2,0.5,0.5,0.7,0.8,0.7c0,0,0.1,0,0.1,0c0.4-0.1,0.7-0.4,0.7-0.8   c0.1-5.9,1.2-6.4,1.5-6.4c0,0,0,0,0,0c0.9,0,2.2,2.5,2.6,5.7c0.1,0.5,0.4,0.7,0.8,0.6c0.4,0,0.7-0.4,0.6-1   c-0.5-2.7-0.1-4.7,0.5-5.1c0.1-0.1,0.2-0.1,0.4,0c0.5,0.3,1.2,1.8,1.3,5.2c0,0.4,0.5,0.7,1,0.8c0.4,0,0.7-0.2,0.8-0.6   c0.3-3.3,0.3-5.5-1-8.7c-0.5-1.2,0-2.4,0.6-3.9c0.5-1.2,1.1-2.6,1.3-4.3c0.1-0.9,0.3-2.2,0.4-3.7c0.1-0.9,0.2-2.2,0.4-3.4   c0.3,1.2,0.6,2.5,0.8,3.4c0.9,3.8,1.3,5.4,2,6.1c0.3,0.5,0.7,0.9,1,1.4c1,1.3,1.9,2.5,1.6,3.9c-0.6,2.9-0.6,5.6-0.2,9.3   c0,0.5,0.4,0.7,0.7,0.7c0.2,0,0.4-0.1,0.5-0.2c0.1-0.1,0.2-0.3,0.2-0.7c0.2-2.7,0.8-3.7,1.3-3.7c0.6-0.1,1.5,1,2.5,4.3   c0.2,0.6,0.7,0.8,1.1,0.8c0.1,0,0.2,0,0.3,0c0.3-0.1,0.5-0.3,0.4-0.5c-0.8-4.5,0.1-5.6,0.4-5.8c0.2-0.2,0.5-0.2,0.8,0   c1,0.5,2,2.5,2.1,5.1c0,0.6,0.5,1,0.9,1.1c0.4,0,0.8-0.2,0.9-0.8c0.3-1.4-0.7-6.2-3-10.7c-1.3-2.5,0-4.4,1.1-5.9   c0.3-0.3,0.6-0.7,0.9-1.2c9.8-8.6,15-18.9,17.4-29.4c2.5,1.4,4.3,3,5.6,4.8c0.3,0.4,0.7,0.6,1.2,0.6c2.9,0,5.9-0.2,8.9-0.3   c11.4-0.6,23.2-1.2,34.1,6.8c1,0.7,2.3,1.1,3.5,1.1c1.4,0,2.8-0.4,3.8-1.3c1.6-1.3,2-3.4,1-5.3c-11.3-22.8-27.3-23.7-47.7-24.8   c-2.8-0.2-5.7-0.3-8.7-0.5c-0.2-4.6-0.7-9.1-1.4-13.2c0-0.2-0.1-0.5-0.1-0.7c3.1,0.1,3.7,0.7,3.8,1c0.3,0.6,0.9,1,1.6,0.9   c9-1.6,44.1-2.7,57.6,0.9c0.1,0,0.3,0,0.4,0c0.2,0,0.4,0,0.6-0.1c2.4-1,6.9-4.9,6.6-8.3C229.6,114.1,229.5,113.7,229.2,113.5z"
       id="path1734" /></g><g
     inkscape:groupmode="layer"
     id="layer2"
     inkscape:label="Layer 2"
     style="display:none"><rect
       style="fill:#000000;fill-opacity:1;stroke:#ffffff;stroke-width:2.83464575;stroke-linecap:round;stroke-linejoin:round;stroke-miterlimit:4;stroke-dasharray:none;stroke-opacity:1;paint-order:markers fill stroke"
       id="rect2318"
       width="308.35175"
       height="268.83841"
       x="-26.21913"
       y="-3.1356599" /></g><g
     inkscape:groupmode="layer"
     id="layer1"
     inkscape:label="Layer 1"
     style="display:inline"><g
       id="svg4084"
       transform="translate(0,17.725609)"><path
         id="path3227"
         class="st2"
         d="m 141.6,181.3 c 1,1.1 -4.3,3.9 -2.1,8.2 2.3,4.5 3.3,9.3 3,10.6 -0.2,1.1 -1.4,0.7 -1.4,-0.2 -0.2,-6 -5.3,-8.6 -3.7,0.8 0.1,0.4 -1.1,0.6 -1.4,-0.3 -1.9,-6.2 -3.9,-5.4 -4.2,-0.5 0,1 -1.1,0.9 -1.1,0.2 -0.4,-3.5 -0.4,-6.2 0.2,-9.3 0.6,-3 -3.9,-5.1 -3.4,-8.1 z"
         inkscape:connector-curvature="0"
         style="stroke:#000000;stroke-width:0.40740001" /><path
         id="path3229"
         class="st2"
         d="m 124.3,182.3 c -0.2,4.4 -3,6.7 -2,9.1 1.3,3.3 1.3,5.5 1,8.6 -0.1,0.7 -1.3,0.3 -1.3,-0.2 -0.2,-8.1 -3.7,-6.4 -2.6,0 0.1,0.9 -0.9,1 -1,0.3 -0.7,-5.6 -4.3,-10.2 -4.5,0.7 0,0.6 -0.9,1 -1.2,0.1 -1,-3.7 -1.1,-4.1 -0.4,-9.4 0.4,-2.8 1,-4 -1.8,-7.5 z"
         inkscape:connector-curvature="0"
         style="stroke:#000000;stroke-width:0.40740001" /><path
         id="path3178"
         class="st3"
         d="m 111.7,183.7 c -37,-30.9 -29.9,-74.3 -10.5,-114.4 0.2,-6.1 0.9,-37.5 17.1,-37.5 18.9,0 18.2,27.2 18.8,39.5 13.7,18.3 39.5,79.2 1,111.5 -2.8,4.3 -4.4,1.8 -8.9,1.4 -0.7,0 -3,-13.5 -4.3,-13.5 -1.4,0 -1.8,13.6 -2.5,13.6 -4.3,1.7 -8.2,1.3 -10.7,-0.6 z"
         inkscape:connector-curvature="0"
         style="fill:#ffffff" /><path
         id="path4005"
         class="st4"
         d="m 127.8,36.6 c 0,0 -3.8,-12.7 -5.2,-19.6 -0.5,-2.1 0.1,-5.7 -1.8,-6.7 -0.7,-0.3 -1.8,0.5 -2.3,1.1 -0.9,0.9 -1.8,3.4 -2.3,5.4 -1.8,6.9 -3.4,7.2 -5,21.4 4.4,0 14.3,-1.1 16.6,-1.6 z"
         inkscape:connector-curvature="0"
         style="fill:#ffd42a;stroke:#000000;stroke-width:2.85179996" /><path
         id="path3875"
         class="st5"
         d="m 101.8,70.2 c 8.6,-8 11.7,-1.9 17.6,-2.7 6.4,-0.7 11.8,-2 17,4.7 l 0.1,-18.5 -32.9,-3 z"
         inkscape:connector-curvature="0"
         style="fill:#ffd42a" /><path
         id="path4024"
         class="st6"
         d="m 102.4,65.4 c 0,0 1.3,-12.5 4.2,-12.1 4.8,0.6 4.1,14.5 11.9,14.4 10.3,-0.2 9.4,-13.9 14.1,-14.1 2,-0.1 4.1,4 4.1,4 C 129.6,13 98.1,34.3 102.4,65.4 Z"
         inkscape:connector-curvature="0"
         style="stroke:#000000;stroke-width:0.40700001" /><path
         id="path4032"
         class="st7"
         d="m 122.1,184.5 2.7,-15.4 5.5,15.3 c -1.2,-4.1 -1,-8.4 -0.7,-14.7 5.4,-5.5 3.7,-4.3 6.5,-9.5 -9.5,8 -14.4,5.3 -21.5,-0.2 2.8,3.1 5.1,7.7 5.4,9.6 2.3,5.4 2.9,10.2 2.1,14.9 z"
         inkscape:connector-curvature="0"
         style="stroke:#000000;stroke-width:0.40740001;stroke-linejoin:round" /><path
         id="path3178-8"
         class="st8"
         d="m 111.7,183.7 c -17.5,-15.9 -25,-34.6 -25.8,-54 -0.8,-20.1 5.6,-41 15.3,-60.4 0.2,-6.1 0.9,-37.5 17.1,-37.5 18.9,0 18.2,27.2 18.8,39.5 13.5,18.1 40.2,78.1 3.4,110 -2.8,4.3 -6.8,3.3 -11.3,2.9 -0.7,0 -3,-13.5 -4.3,-13.5 -1.4,0 -1.8,13.6 -2.5,13.6 -4.3,1.7 -8.2,1.3 -10.7,-0.6 z"
         inkscape:connector-curvature="0"
         style="fill:none;stroke:#000000;stroke-width:3.28590012;stroke-linecap:round;stroke-linejoin:round" /><path
         id="path3180"
         class="st3"
         d="m 137.4,75.1 c 22.7,-15.7 45.9,-21.1 81,-8.9 -0.7,2.2 -1.9,5.6 -3.6,7.5 -19.8,1.3 -32.4,7.1 -55.3,15.8 -1.9,-3.1 -8.8,-5.6 -15.4,-3.2"
         inkscape:connector-curvature="0"
         style="fill:#ffffff" /><path
         id="path3182"
         class="st3"
         d="m 149.3,103.7 c 30.4,-8.3 58.5,-7.1 78.9,10.9 0.2,2.5 -3.6,5.9 -5.7,6.8 -13.9,-3.7 -49.5,-2.4 -58.2,-0.9 -1,-2.2 -8.1,-2.6 -12.9,-1.6"
         inkscape:connector-curvature="0"
         style="fill:#ffffff" /><path
         id="path3195"
         class="st3"
         d="m 152.4,134.6 c 29,3.2 49.8,-2.1 63.4,25.4 1.8,3.6 -3.2,5.8 -6.1,3.7 -14.2,-10.5 -29.7,-6.8 -43.8,-6.8 -2.9,-4 -8.6,-6.9 -15.2,-9"
         inkscape:connector-curvature="0"
         style="fill:#ffffff" /><path
         id="path3203"
         class="st3"
         d="M 101,75.4 C 100.2,74.9 99.4,74.5 98.7,74 62.5,53.7 27.3,69.6 21.6,83.9 c 10.6,0.1 40.8,-1.2 53.7,7.6 7.2,-0.4 11.3,-0.3 11.3,-0.3 4.8,-4.5 8.3,-1.8 10,-0.4"
         inkscape:connector-curvature="0"
         style="fill:#ffffff" /><path
         id="path3211"
         class="st3"
         d="M 96.8,98.5 C 90.9,104.6 86.2,102 81.4,102.4 29.9,100.6 25.3,106 10,120.8 l 2.8,3.3 c 26.3,0 40.8,-0.1 58.6,0.3 7.7,-2.4 10.4,-5.8 15,-8.9 4.3,0 8,0.5 8.9,3.5"
         inkscape:connector-curvature="0"
         style="fill:#ffffff" /><path
         id="path3219"
         class="st3"
         d="m 89.7,128.4 c 0,0 -9.6,3.6 -13.9,4.1 -15.9,1.7 -45.8,13.4 -44.7,37.9 10.6,-4.1 15.2,-5.9 25.2,-9.5 6.2,-2.2 12.3,-2.7 17,-4.6 3.9,-2.4 6.8,-6.1 8.5,-10.2 3.3,-2.3 5.9,-2.2 8.6,-2.5"
         inkscape:connector-curvature="0"
         style="fill:#ffffff" /><path
         id="path3180-0"
         class="st9"
         d="m 139,74.5 c 22.7,-15.7 44.3,-20.4 79.4,-8.3 -0.7,2.2 -1.9,5.6 -3.6,7.5 -19.8,1.3 -32.4,7.1 -55.3,15.8 -1.9,-3.1 -9.1,-5.2 -13.8,-3.4"
         inkscape:connector-curvature="0"
         style="fill:#ffffff;stroke:#000000;stroke-width:2.95700002;stroke-linecap:round;stroke-linejoin:round" /><path
         id="path3182-1"
         class="st9"
         d="m 151.7,103 c 28.8,-7.1 57.1,-5.6 76.5,11.6 0.2,2.5 -3.6,5.9 -5.7,6.8 -13.9,-3.7 -49.5,-2.4 -58.2,-0.9 -0.7,-1.6 -3.4,-2 -7.4,-1.8"
         inkscape:connector-curvature="0"
         style="fill:#ffffff;stroke:#000000;stroke-width:2.95700002;stroke-linecap:round;stroke-linejoin:round" /><path
         id="path3195-0"
         class="st9"
         d="m 158.1,135.3 c 26.4,2.2 44.9,-1.2 57.7,24.7 1.8,3.6 -3.2,5.8 -6.1,3.7 -14.2,-10.5 -29.7,-6.8 -43.8,-6.8 -1.8,-2.5 -4.5,-4.5 -7.9,-6.2"
         inkscape:connector-curvature="0"
         style="fill:#ffffff;stroke:#000000;stroke-width:2.95700002;stroke-linecap:round;stroke-linejoin:round" /><path
         id="path3203-3"
         class="st9"
         d="m 99.2,74.1 c -0.5,-0.3 0,0.2 -0.5,-0.1 -36.2,-20.3 -71.4,-4.4 -77.1,9.9 10.6,0.1 40.8,-1.2 53.7,7.6 7.2,-0.4 11.3,-0.3 11.3,-0.3 3.3,-3.1 6,-2.8 7.9,-1.8"
         inkscape:connector-curvature="0"
         style="fill:#ffffff;stroke:#000000;stroke-width:2.95700002;stroke-linecap:round;stroke-linejoin:round" /><path
         id="path3211-8"
         class="st9"
         d="m 89.9,102.4 c -3,0.5 -5.7,-0.3 -8.5,0 C 29.9,100.6 25.3,106 10,120.8 l 2.8,3.3 c 26.3,0 40.8,-0.1 58.6,0.3 7.7,-2.4 10.4,-5.8 15,-8.9 1.2,0 2.8,0 3.5,0.5"
         inkscape:connector-curvature="0"
         style="fill:#ffffff;stroke:#000000;stroke-width:2.95700002;stroke-linecap:round;stroke-linejoin:round" /><path
         id="path3219-8"
         class="st9"
         d="m 87.3,129.2 c -3.1,1.1 -8.6,2.9 -11.5,3.2 -15.9,1.7 -45.8,13.4 -44.7,37.9 10.6,-4.1 15.2,-5.9 25.2,-9.5 6.2,-2.2 12.3,-2.7 17,-4.6 3.9,-2.4 6.8,-6.1 8.5,-10.2 2.6,-1.9 4.9,-2.2 7.1,-2.3"
         inkscape:connector-curvature="0"
         style="fill:#ffffff;stroke:#000000;stroke-width:2.95700002;stroke-linecap:round;stroke-linejoin:round" /></g><g
       id="svg4084_Kopie_Kopie"
       transform="translate(0,17.725609)"><path
         class="st11"
         d="M 229.2,113.5 C 207.3,94.1 176.7,95.8 154,101 c -1.7,-4.9 -3.7,-9.6 -5.8,-13.9 3.9,-0.5 8.8,1.1 10.1,3.3 0.3,0.4 0.8,0.7 1.3,0.7 0.2,0 0.4,0 0.5,-0.1 3,-1.1 5.7,-2.2 8.4,-3.2 C 186.2,81 198,76.4 215,75.3 c 0.4,0 0.7,-0.2 1,-0.5 1.9,-2.1 3.1,-5.6 3.9,-8 0.2,-0.8 -0.2,-1.6 -0.9,-1.8 -37,-12.7 -58.6,-6.4 -79.1,7.4 -0.3,-0.5 -0.7,-1 -1,-1.5 0,-0.9 -0.1,-1.8 -0.1,-2.8 -0.4,-10.3 -1,-27.6 -10.3,-34.6 -1.2,-4.1 -3.4,-11.8 -4.3,-16.6 -0.1,-0.5 -0.2,-1.3 -0.2,-2 -0.1,-2 -0.3,-4.6 -2.3,-5.6 h -0.1 c -1.5,-0.7 -3.2,0.6 -3.9,1.5 -1.4,1.5 -2.4,5 -2.6,6 -0.5,2 -1,3.5 -1.5,4.9 -1,2.7 -1.9,5.4 -2.8,11.5 C 105,37 100.3,47.1 99.6,68.9 99.1,69.9 98.6,71 98.1,72 79.9,62.2 59.5,60.2 41.8,66.5 31.2,70.3 23,76.7 20.3,83.4 c -0.2,0.5 -0.1,1 0.1,1.4 0.3,0.4 0.7,0.6 1.2,0.7 1.2,0 2.7,0 4.4,0 12.2,-0.1 37.4,-0.2 48.5,7.3 0.2,0.2 0.5,0.3 0.8,0.3 0,0 0.1,0 0.1,0 7,-0.4 11.1,-0.3 11.2,-0.3 0.4,0 0.8,-0.1 1,-0.4 1,-1 2,-1.6 3,-1.9 -1.2,3.6 -2.3,7.2 -3.1,10.7 -0.7,0 -1.4,-0.1 -2.1,-0.1 -1.3,-0.1 -2.6,-0.2 -4,-0.1 -51.1,-1.8 -56.7,3.6 -71.6,18 L 9,119.7 c -0.6,0.5 -0.6,1.4 -0.1,2 l 2.8,3.3 c 0.3,0.3 0.7,0.5 1.1,0.5 h 13 c 18.6,0 30.9,0 45.6,0.3 0,0 0,0 0,0 0.1,0 0.3,0 0.4,-0.1 5.9,-1.8 9,-4.3 12.1,-6.6 0.2,-0.2 0.4,-0.3 0.6,-0.5 -0.3,3.4 -0.4,6.7 -0.3,10 -3.2,1.1 -6.7,2 -8.6,2.2 -15.5,1.7 -47.2,13.5 -46,39.4 0,0.5 0.3,0.9 0.7,1.2 0.2,0.2 0.5,0.2 0.8,0.2 0.2,0 0.4,0 0.5,-0.1 l 2.1,-0.8 c 9.2,-3.5 13.8,-5.3 23.1,-8.7 3,-1.1 5.9,-1.7 8.8,-2.3 3,-0.7 5.8,-1.3 8.3,-2.3 0.1,0 0.2,-0.1 0.2,-0.1 3.8,-2.4 7,-6.1 8.9,-10.5 1.2,-0.8 2.4,-1.3 3.5,-1.5 3.7,15 11.7,28.2 24.1,39.4 0,0 0.1,0.1 0.1,0.1 0.2,0.1 0.4,0.3 0.6,0.4 1.4,2.2 1.3,3.3 1,5.2 0,0.3 -0.1,0.6 -0.1,0.9 -0.7,5.4 -0.6,5.8 0.4,9.5 0.2,0.5 0.5,0.7 0.8,0.7 0,0 0.1,0 0.1,0 0.4,-0.1 0.7,-0.4 0.7,-0.8 0.1,-5.9 1.2,-6.4 1.5,-6.4 0,0 0,0 0,0 0.9,0 2.2,2.5 2.6,5.7 0.1,0.5 0.4,0.7 0.8,0.6 0.4,0 0.7,-0.4 0.6,-1 -0.5,-2.7 -0.1,-4.7 0.5,-5.1 0.1,-0.1 0.2,-0.1 0.4,0 0.5,0.3 1.2,1.8 1.3,5.2 0,0.4 0.5,0.7 1,0.8 0.4,0 0.7,-0.2 0.8,-0.6 0.3,-3.3 0.3,-5.5 -1,-8.7 -0.5,-1.2 0,-2.4 0.6,-3.9 0.5,-1.2 1.1,-2.6 1.3,-4.3 0.1,-0.9 0.3,-2.2 0.4,-3.7 0.1,-0.9 0.2,-2.2 0.4,-3.4 0.3,1.2 0.6,2.5 0.8,3.4 0.9,3.8 1.3,5.4 2,6.1 0.3,0.5 0.7,0.9 1,1.4 1,1.3 1.9,2.5 1.6,3.9 -0.6,2.9 -0.6,5.6 -0.2,9.3 0,0.5 0.4,0.7 0.7,0.7 0.2,0 0.4,-0.1 0.5,-0.2 0.1,-0.1 0.2,-0.3 0.2,-0.7 0.2,-2.7 0.8,-3.7 1.3,-3.7 0.6,-0.1 1.5,1 2.5,4.3 0.2,0.6 0.7,0.8 1.1,0.8 0.1,0 0.2,0 0.3,0 0.3,-0.1 0.5,-0.3 0.4,-0.5 -0.8,-4.5 0.1,-5.6 0.4,-5.8 0.2,-0.2 0.5,-0.2 0.8,0 1,0.5 2,2.5 2.1,5.1 0,0.6 0.5,1 0.9,1.1 0.4,0 0.8,-0.2 0.9,-0.8 0.3,-1.4 -0.7,-6.2 -3,-10.7 -1.3,-2.5 0,-4.4 1.1,-5.9 0.3,-0.3 0.6,-0.7 0.9,-1.2 9.8,-8.6 15,-18.9 17.4,-29.4 2.5,1.4 4.3,3 5.6,4.8 0.3,0.4 0.7,0.6 1.2,0.6 2.9,0 5.9,-0.2 8.9,-0.3 11.4,-0.6 23.2,-1.2 34.1,6.8 1,0.7 2.3,1.1 3.5,1.1 1.4,0 2.8,-0.4 3.8,-1.3 1.6,-1.3 2,-3.4 1,-5.3 -11.3,-22.8 -27.3,-23.7 -47.7,-24.8 -2.8,-0.2 -5.7,-0.3 -8.7,-0.5 -0.2,-4.6 -0.7,-9.1 -1.4,-13.2 0,-0.2 -0.1,-0.5 -0.1,-0.7 3.1,0.1 3.7,0.7 3.8,1 0.3,0.6 0.9,1 1.6,0.9 9,-1.6 44.1,-2.7 57.6,0.9 0.1,0 0.3,0 0.4,0 0.2,0 0.4,0 0.6,-0.1 2.4,-1 6.9,-4.9 6.6,-8.3 -0.3,-0.6 -0.4,-1 -0.7,-1.2 z"
         id="path1737"
         inkscape:connector-curvature="0"
         style="fill:none;stroke:#ffffff;stroke-width:2;stroke-miterlimit:4;stroke-dasharray:none;stroke-linejoin:round;stroke-linecap:round;paint-order:fill markers stroke" /></g></g></svg>